<?xml version="1.0" standalone="no"?>
<!DOCTYPE svg PUBLIC "-//W3C//DTD SVG 20010904//EN"
 "http://www.w3.org/TR/2001/REC-SVG-20010904/DTD/svg10.dtd">
<svg version="1.0" xmlns="http://www.w3.org/2000/svg"
 width="500.000000pt" height="500.000000pt" viewBox="0 0 500.000000 500.000000"
 preserveAspectRatio="xMidYMid meet">

<g transform="translate(0.000000,500.000000) scale(0.100000,-0.100000)"
fill="#000000" stroke="none">
<path d="M3085 3503 c-11 -3 -35 -16 -54 -30 -113 -86 -54 -263 87 -263 56 0
91 21 125 75 33 52 35 101 5 145 -41 59 -105 88 -163 73z m75 -103 c11 -11 20
-31 20 -45 0 -25 -31 -65 -50 -65 -20 0 -68 29 -73 45 -13 33 23 85 60 85 12
0 32 -9 43 -20z"/>
<path d="M1818 3493 c-2 -5 -1 -206 2 -448 l5 -440 38 -3 37 -3 0 320 0 321
43 0 42 0 0 -317 c0 -300 1 -318 18 -321 10 -2 29 -1 43 2 l24 6 0 445 0 445
-124 0 c-69 0 -126 -3 -128 -7z m172 -119 l0 -44 -45 0 -45 0 0 43 0 42 45 1
45 1 0 -43z"/>
<path d="M2381 3450 c-212 -5 -224 -6 -231 -25 -4 -11 -3 -28 2 -37 8 -17 35
-18 353 -18 339 0 344 0 355 21 7 11 9 32 6 45 -7 27 23 26 -485 14z"/>
<path d="M2157 3273 c-15 -14 -7 -63 12 -73 13 -6 143 -10 355 -10 l335 0 7
34 c3 19 3 39 -1 45 -7 12 -697 16 -708 4z"/>
<path d="M3123 3113 c-12 -12 -34 -18 -63 -18 -25 0 -237 -2 -472 -3 -411 -2
-428 -3 -438 -21 -7 -13 -7 -28 0 -46 l10 -26 471 1 c400 1 474 -1 488 -14 55
-49 155 9 137 80 -15 59 -94 86 -133 47z"/>
<path d="M3156 2895 c-17 -13 -88 -14 -502 -9 -399 5 -483 4 -490 -7 -13 -20
-4 -551 9 -567 6 -7 22 -12 36 -10 l26 3 5 250 5 250 40 0 40 0 3 -241 c2
-217 4 -243 20 -257 16 -15 20 -15 40 -1 22 15 22 19 22 255 l0 239 360 0
c348 0 362 -1 389 -20 33 -25 68 -16 94 24 24 36 21 61 -9 85 -31 24 -61 26
-88 6z"/>
<path d="M3136 2697 l-29 -24 -294 5 c-227 4 -296 2 -308 -8 -18 -15 -20 -64
-2 -77 7 -6 132 -8 306 -7 272 3 295 1 320 -16 50 -35 68 -35 106 3 41 41 45
75 13 111 -33 38 -76 42 -112 13z"/>
<path d="M1813 2524 c-2 -5 -2 -59 -1 -120 l3 -109 128 -3 127 -3 0 120 0 120
-126 3 c-83 2 -128 -1 -131 -8z m185 -109 c-2 -20 -6 -35 -10 -35 -5 0 -28 0
-53 0 -43 0 -45 1 -45 28 0 38 5 42 62 42 l49 0 -3 -35z"/>
<path d="M3133 2456 c-26 -22 -40 -26 -97 -26 -52 0 -66 3 -66 15 0 23 -31 26
-260 23 l-215 -3 -3 -53 c-2 -31 2 -60 9 -68 9 -11 53 -14 233 -13 121 1 253
4 291 8 66 6 72 5 103 -21 37 -32 52 -34 92 -13 54 28 67 94 28 139 -35 39
-78 43 -115 12z"/>
<path d="M1808 2010 l-3 -120 88 0 c86 0 87 0 87 25 0 26 -13 32 -79 37 -52 4
-51 26 1 30 35 2 44 7 46 25 3 19 -2 22 -40 25 -31 2 -44 8 -46 21 -3 14 5 17
52 17 56 0 56 0 56 30 l0 30 -79 0 -80 0 -3 -120z"/>
<path d="M2186 2111 c-76 -51 -73 -153 7 -201 82 -51 177 8 177 110 0 34 -6
48 -34 76 -28 28 -41 34 -77 34 -27 0 -56 -8 -73 -19z m102 -48 c31 -28 35
-56 11 -86 -26 -35 -61 -35 -88 -1 -27 34 -27 58 1 84 27 25 49 25 76 3z"/>
<path d="M2410 2010 l0 -120 30 0 c28 0 30 3 30 34 0 19 4 37 9 40 10 6 61
-49 61 -65 0 -5 14 -9 30 -9 35 0 37 13 12 55 -17 28 -17 30 2 66 17 31 18 40
7 66 -16 39 -48 53 -121 53 l-60 0 0 -120z m124 50 c17 -16 -3 -40 -34 -40
-25 0 -30 4 -30 23 0 13 3 27 7 30 7 8 43 -1 57 -13z"/>
<path d="M2638 2035 c-1 -52 -2 -105 -2 -117 -1 -20 5 -23 48 -26 95 -6 156
42 156 123 0 73 -55 115 -150 115 l-50 0 -2 -95z m120 19 c42 -29 18 -104 -35
-104 -20 0 -23 5 -23 38 0 20 -3 47 -6 60 -5 18 -2 22 18 22 13 0 34 -7 46
-16z"/>
<path d="M2880 2010 l0 -120 86 0 85 0 -3 28 c-3 25 -7 27 -55 30 -38 2 -53 7
-53 18 0 10 12 14 45 14 41 0 45 2 45 25 0 23 -4 25 -45 25 -38 0 -45 3 -45
20 0 17 7 20 49 20 35 0 51 4 55 16 16 40 9 44 -79 44 l-85 0 0 -120z"/>
<path d="M3088 2124 c-3 -5 -4 -58 -3 -119 l2 -110 31 -3 c31 -3 32 -2 32 37
0 23 4 41 9 41 4 0 20 -18 35 -40 21 -32 32 -40 56 -40 36 0 36 3 9 46 l-21
34 21 26 c27 35 26 66 -3 101 -21 24 -32 28 -94 31 -38 2 -72 0 -74 -4z m120
-81 c3 -20 -1 -23 -32 -23 -32 0 -36 3 -36 26 0 23 3 25 33 22 24 -2 33 -8 35
-25z"/>
<path d="M2038 2023 c-35 -4 -38 -7 -38 -35 0 -27 3 -30 23 -24 12 3 37 6 55
6 30 0 33 2 30 27 -3 30 -10 32 -70 26z"/>
</g>
</svg>
